<?xml version="1.0" encoding="utf-8"?>
<!-- Generator: Adobe Illustrator 27.6.1, SVG Export Plug-In . SVG Version: 6.00 Build 0)  -->
<svg version="1.1" id="Layer_1" xmlns="http://www.w3.org/2000/svg" xmlns:xlink="http://www.w3.org/1999/xlink" x="0px" y="0px"
	 viewBox="0 0 190 100" style="enable-background:new 0 0 190 100;" xml:space="preserve">
<style type="text/css">
	.st0{clip-path:url(#SVGID_00000051353101825297639730000006119372573315145138_);}
</style>
<g>
	<defs>
		<rect id="SVGID_1_" y="0" width="190" height="100"/>
	</defs>
	<clipPath id="SVGID_00000064336070968895202480000003749065036071792542_">
		<use xlink:href="#SVGID_1_"  style="overflow:visible;"/>
	</clipPath>
	<g id="b_topfeature_1" style="clip-path:url(#SVGID_00000064336070968895202480000003749065036071792542_);">
		<g id="Group_2676" transform="translate(46.565 2.792)">
			<g id="Group_2676-2" transform="translate(10.435 10.209)">
				<path id="Path_11292" d="M20.4,38.8H37L36.9,9.4l-3.4,0l0.1,25.9H20.4V38.8z"/>
				<path id="Path_11293" d="M58.9,62.5C44.8,74.6,23.6,73,11.5,58.9S1,23.7,15.1,11.6C26.6,1.6,43.4,0.7,56,9.3l-2.3,2.5l10,2.1
					l-3.1-9.7l-2.2,2.5C41.6-5,18.5-1,6.7,15.7S-1,55.5,15.7,67.2c5.5,3.9,11.9,6.2,18.6,6.7c0.9,0.1,1.9,0.1,2.8,0.1
					C56.4,74,72.4,59,73.9,39.8l-3.4-0.3C69.8,48.4,65.7,56.7,58.9,62.5z"/>
				<path id="Path_11294" d="M76,28.5L63.5,17v8.5L54.3,17v23.1l9.2-8.5v8.5L76,28.5z M57.7,32.3v-7.5l4,3.7L57.7,32.3z M66.9,24.8
					l4,3.7l-4,3.7V24.8z"/>
			</g>
			<g id="Group_2677" transform="translate(24.346 57.442)">
				<path id="Path_11295" d="M0,1.4h4.2V13H2.1V3.4H0V1.4z"/>
				<path id="Path_11296" d="M5.4,1.4h7.1v2.2H7.6L7.2,6.3c0.6-0.5,1.4-0.8,2.2-0.8c1.9,0,3.5,1.5,3.5,3.4c0,0.1,0,0.2,0,0.3
					c0,2.4-1.6,4-4.2,4c-2.2,0.1-4.1-1.5-4.2-3.7c0-0.1,0-0.2,0-0.3l2.4,0c0,1,0.8,1.8,1.8,1.8c1,0,1.8-0.8,1.8-1.8c0,0,0,0,0-0.1
					c0.1-1-0.7-1.8-1.7-1.9c0,0-0.1,0-0.1,0c-0.6,0-1.2,0.3-1.5,0.8l-2.6,0L5.4,1.4z"/>
				<path id="Path_11297" d="M29.6,7.7V13h-2.4V8c0-1.4-0.7-2.1-1.9-2.1c-1.3,0-2,0.9-2,2.3V13h-2.3V8C21,7,20.3,6,19.3,5.9
					c-0.1,0-0.2,0-0.4,0c-1.3,0-2,0.9-2,2.3V13h-2.4V4h2.4V5c0.6-0.8,1.6-1.2,2.6-1.2c1.3-0.1,2.5,0.6,3.2,1.7
					c0.6-1.1,1.8-1.7,3-1.7c2-0.1,3.7,1.4,3.8,3.4C29.6,7.4,29.6,7.6,29.6,7.7z"/>
				<path id="Path_11298" d="M32.7,0c0.8,0,1.5,0.7,1.5,1.5c0,0,0,0,0,0c0,0.8-0.7,1.5-1.5,1.5c-0.8,0-1.5-0.7-1.5-1.5
					C31.2,0.7,31.9,0,32.7,0C32.7,0,32.7,0,32.7,0z M33.9,13h-2.4V4h2.4L33.9,13z"/>
				<path id="Path_11299" d="M44.7,7.7V13h-2.4V8c0-1.3-0.7-2.2-1.9-2.2c-1.2,0-2.1,0.9-2.2,2.1c0,0.1,0,0.2,0,0.3V13h-2.4V4h2.4V5
					c0.7-0.8,1.6-1.2,2.6-1.2c2-0.1,3.7,1.5,3.8,3.5C44.7,7.5,44.7,7.6,44.7,7.7z"/>
			</g>
		</g>
	</g>
</g>
</svg>
