<?xml version="1.0" encoding="utf-8"?>
<!-- Generator: Adobe Illustrator 27.6.1, SVG Export Plug-In . SVG Version: 6.00 Build 0)  -->
<svg version="1.1" id="Layer_1" xmlns="http://www.w3.org/2000/svg" xmlns:xlink="http://www.w3.org/1999/xlink" x="0px" y="0px"
	 viewBox="0 0 175 175" style="enable-background:new 0 0 175 175;" xml:space="preserve">
<style type="text/css">
	.st0{clip-path:url(#SVGID_00000032638214252874716620000011301264033745430699_);}
</style>
<g>
	<defs>
		<rect id="SVGID_1_" y="0" width="175" height="175"/>
	</defs>
	<clipPath id="SVGID_00000057839603192710468980000009587476306793033391_">
		<use xlink:href="#SVGID_1_"  style="overflow:visible;"/>
	</clipPath>
	<g id="a_topfeature_1" style="clip-path:url(#SVGID_00000057839603192710468980000009587476306793033391_);">
		<g id="Group_2675" transform="translate(25 49)">
			<path id="Path_11285" d="M67.4,0C46.3-0.2,29.1,16.6,28.8,37.7S45.5,76,66.5,76.2c21.1,0.2,38.3-16.6,38.5-37.7
				C105.3,17.5,88.4,0.2,67.4,0C67.4,0,67.4,0,67.4,0z M66.9,70.9C48.7,70.9,34.1,56.1,34.2,38S48.9,5.3,67.1,5.3
				c18.1,0.1,32.8,14.8,32.7,32.9c0,0.1,0,0.2,0,0.2C99.6,56.5,84.9,71,66.9,70.9L66.9,70.9z"/>
			<path id="Path_11286" d="M125.1,2.5c0-0.4,0-0.4-0.4-0.4c-1.4,0-2.8,0-4.1,0c-0.9,0-0.8-0.1-0.8,0.7c0,12.4,0,24.8,0,37.3v0.8
				c-0.1-0.2-0.2-0.2-0.3-0.3c-0.9-1.1-1.8-2.3-2.8-3.4c-0.2-0.3-0.4-0.6-0.4-1c0-11.1,0-22.2,0-33.3c0-0.1,0-0.3,0-0.4
				c0-0.4,0-0.4-0.4-0.4c-1.2,0-2.4,0-3.6,0c-0.3,0-0.6,0-1,0S111,2.1,111,2.4c0,0.1,0,0.1,0,0.2c0,11.9,0,23.7,0,35.6
				c0,0.3,0.1,0.6,0.3,0.8c2.7,3.3,5.4,6.6,8.1,9.8c0.2,0.3,0.4,0.6,0.4,1c0,5.3,0,10.6,0,16v8.6c0,0.6-0.1,0.5,0.6,0.5h4
				c0.8,0,0.8,0,0.8-0.7c0-23.8,0-47.5,0-71.3C125.1,2.7,125.1,2.6,125.1,2.5z"/>
			<path id="Path_11287" d="M23.4,1.7c-1.3,0-2.6,0-3.9,0c-0.2,0-0.4,0-0.6,0c-0.1,0.2-0.1,0.4,0,0.7c0,6.8,0,13.6,0,20.4
				c0,0.1,0,0.3,0,0.4c0,0.4,0,0.4-0.4,0.4c-0.1,0-0.1,0-0.2,0H6c-0.1,0-0.2,0-0.3,0c-0.2,0-0.3-0.1-0.3-0.3c0-0.1,0-0.3,0-0.4v-9.7
				c0-3.6,0-7.2,0-10.8c0-0.7,0.1-0.6-0.6-0.6c-1.1,0-2.1,0-3.2,0c-0.4,0-0.8,0-1.2,0C0.1,1.7,0,1.7,0,2c0,0.1,0,0.2,0,0.3
				c0,8.7,0,17.3,0,26c0,0.2,0,0.4,0.1,0.6h0.7c2.4,0,4.8,0,7.2,0c0.8,0,0.7-0.1,0.7,0.8c0,14.8,0,29.6,0,44.3c0,0.2,0,0.3,0,0.5
				c0,0.4,0,0.4,0.4,0.4c1.4,0,2.8,0,4.2,0c0.7,0,0.7,0,0.7-0.8c0-14.9,0-29.7,0-44.6c0-0.7-0.1-0.6,0.6-0.6c3,0,6,0,9.1,0
				c0.5,0,0.5,0,0.5-0.5c0-0.1,0-0.2,0-0.3V2.5C24.2,1.7,24.2,1.7,23.4,1.7z"/>
			<path id="Path_11288" d="M9.8,19.8c0.9,0,1.8,0,2.7,0c0.7,0,1.3,0,2,0c0.2,0,0.3-0.1,0.3-0.3c0-0.1,0-0.2,0-0.3v-8.4h0
				c0-2.8,0-5.7,0-8.6c0-0.6,0-0.5-0.5-0.5c-1.4,0-2.9,0-4.3,0c-0.5,0-0.5,0-0.5,0.5v0.1l0,14.1c0,1,0,2,0,3.1
				C9.4,19.7,9.5,19.8,9.8,19.8z"/>
			<path id="Path_11289" d="M78.4,34.6c-0.8-0.3-1.6-0.4-2.4-0.4c-2.3-0.3-4.6,0.6-6.1,2.5c0-0.7,0-1.3,0.1-2
				c0.2-1.5,0.9-2.9,1.9-4.1c0.8-0.9,2-1.4,3.2-1.3c1.2,0,2.3,0.7,2.9,1.8c0.1,0.1,0.1,0.3,0.2,0.4c0,0.2,0.2,0.3,0.4,0.3
				c1.6,0,3.1,0,4.7,0c0.3,0,0.3-0.1,0.2-0.4c-0.1-0.4-0.2-0.9-0.4-1.3c-0.7-2.1-2.2-3.7-4.2-4.6c-0.9-0.4-1.8-0.6-2.7-0.7
				c-3-0.5-6,0.7-8,3c-1.3,1.5-2.1,3.3-2.6,5.1c-0.8,3.1-1,6.4-0.4,9.6c0.3,1.8,0.9,3.5,1.9,5.1c1,1.6,2.5,2.9,4.3,3.5
				c1.7,0.6,3.6,0.7,5.3,0.4c2.9-0.4,5.4-2.4,6.4-5.1c0.8-1.9,0.9-3.9,0.4-5.9C83,37.8,81,35.5,78.4,34.6z M78.4,45
				c-0.6,1.2-1.8,2-3.1,2.2c-2.3,0.5-4.5-1-4.9-3.3c-0.1-0.4-0.1-0.8-0.1-1.1c0-0.6,0.1-1.2,0.3-1.7c0.9-2.2,3.4-3.2,5.6-2.3
				c1.7,0.7,2.8,2.5,2.6,4.4C78.9,43.7,78.7,44.4,78.4,45z"/>
			<path id="Path_11290" d="M59.6,25.9c0-0.1,0-0.2,0-0.3c0-0.3-0.1-0.4-0.3-0.4c-1,0-1.9,0-2.9,0c-0.2,0-0.4,0.1-0.6,0.2
				c-2.4,1.2-4.8,2.3-7.2,3.5c-0.3,0.1-0.5,0.4-0.4,0.7c0,1.5,0,2.9,0,4.4c0,0.1,0,0.3,0.1,0.4c2-1,3.9-1.9,6-2.9v10.3c0,3,0,6,0,9
				c0,0.5-0.1,0.5,0.5,0.5c1.4,0,2.8,0,4.2,0c0.7,0,0.6,0.1,0.6-0.6C59.6,42.4,59.6,34.1,59.6,25.9z"/>
		</g>
	</g>
</g>
</svg>
