<?xml version="1.0" encoding="utf-8"?>
<!-- Generator: Adobe Illustrator 27.6.1, SVG Export Plug-In . SVG Version: 6.00 Build 0)  -->
<svg version="1.1" id="Layer_1" xmlns="http://www.w3.org/2000/svg" xmlns:xlink="http://www.w3.org/1999/xlink" x="0px" y="0px"
	 viewBox="0 0 190 100" style="enable-background:new 0 0 190 100;" xml:space="preserve">
<style type="text/css">
	.st0{clip-path:url(#SVGID_00000132767548803516451560000001976030036704639927_);}
</style>
<g>
	<defs>
		<rect id="SVGID_1_" y="0" width="190" height="100"/>
	</defs>
	<clipPath id="SVGID_00000058582703427904342180000005684196827487715767_">
		<use xlink:href="#SVGID_1_"  style="overflow:visible;"/>
	</clipPath>
	<g id="b_topfeature_2" style="clip-path:url(#SVGID_00000058582703427904342180000005684196827487715767_);">
		<g id="Group_2679" transform="translate(41.622 10.801)">
			<g id="Group_2678" transform="translate(23.378 7.198)">
				<path id="Path_11300" d="M0,21v23c0,2.6,2.1,4.7,4.7,4.7h7.7V16.3H4.7C2.1,16.3,0,18.4,0,21z M9.3,45.6H4.7
					c-0.9,0-1.6-0.7-1.6-1.6c0,0,0,0,0,0V21c0-0.9,0.7-1.6,1.6-1.6h4.6L9.3,45.6z"/>
				<path id="Path_11301" d="M44.9,0.5c-1.5-0.8-3.3-0.6-4.7,0.3L16.5,17V48l23.7,16.1c2,1.5,4.9,1,6.3-1c0.6-0.8,0.9-1.7,0.9-2.7
					V4.5C47.4,2.8,46.4,1.3,44.9,0.5z M44.2,60.4c0,0.5-0.3,1-0.8,1.3c-0.5,0.2-1.1,0.2-1.5-0.1L19.6,46.3V18.7L42,3.4
					c0.6-0.5,1.5-0.3,2,0.3c0.2,0.2,0.3,0.5,0.3,0.8L44.2,60.4z"/>
			</g>
			<path id="Path_11302" d="M74.9,21.6V26c7.1,7.8,7.1,19.6,0,27.4v4.4c10-8.4,11.3-23.2,2.9-33.2C77,23.5,76,22.5,74.9,21.6
				L74.9,21.6z"/>
		</g>
	</g>
</g>
</svg>
