<?xml version="1.0" encoding="utf-8"?>
<!-- Generator: Adobe Illustrator 27.6.1, SVG Export Plug-In . SVG Version: 6.00 Build 0)  -->
<svg version="1.1" id="Layer_1" xmlns="http://www.w3.org/2000/svg" xmlns:xlink="http://www.w3.org/1999/xlink" x="0px" y="0px"
	 viewBox="0 0 175 175" style="enable-background:new 0 0 175 175;" xml:space="preserve">
<style type="text/css">
	.st0{clip-path:url(#SVGID_00000103262725619971552530000016160671386664158601_);}
</style>
<g>
	<defs>
		<rect id="SVGID_1_" y="0" width="175" height="175"/>
	</defs>
	<clipPath id="SVGID_00000025420804969932442290000006358249337817596588_">
		<use xlink:href="#SVGID_1_"  style="overflow:visible;"/>
	</clipPath>
	<g id="a_topfeature_2" style="clip-path:url(#SVGID_00000025420804969932442290000006358249337817596588_);">
		<path id="Path_11291" d="M114.9,82.8l8.8-5.1l-8.8-5.1c0,1.1,0,2,0,3c0,0.5,0.1,0.4-0.4,0.4h-9.7c-0.3,0-0.3,0-0.3,0.3
			c0,0.9,0,1.8,0,2.7c0,0.5-0.1,0.4,0.4,0.4c3.2,0,6.5,0,9.7,0c0.4,0,0.3,0,0.3,0.3c0,0.9,0,1.8,0,2.8
			C114.8,82.6,114.8,82.7,114.9,82.8z M129,76.5c-9.4,14.7-18.8,29.4-28.2,44c0,0,0,0,0,0c0,0,0,0,0,0V68.4c0-0.5,0-0.5-0.5-0.5
			H61.5c-0.5,0-0.5,0-0.5,0.5c0,20.4,0,40.8,0,61.2c0,0.6-0.1,0.5,0.5,0.5h39c0.3,0,0.3,0,0.3-0.3c0-0.8,0-1.6,0-2.4
			c0-0.2,0.1-0.4,0.2-0.6c9.7-15.1,19.4-30.3,29-45.5c0.6-1,1.2-2,1.9-3L129,76.5z M97.4,126.2c0,0.5,0.1,0.5-0.5,0.5
			c-10.7,0-21.4,0-32.1,0c-0.5,0-0.5,0.1-0.5-0.4c0-9.1,0-18.2,0-27.3V71.8c0-0.5,0-0.5,0.5-0.5h32.1c0.5,0,0.5-0.1,0.5,0.5
			C97.4,89.9,97.4,108.1,97.4,126.2z M113,60.3c0.8,0.3,1.7,0.4,2.6,0.4c1.9,0,3.7-1,4.7-2.6c0.7-1.1,1.1-2.5,1-3.8
			c0-0.5,0-1.1-0.2-1.6c-0.3-1.8-1.5-3.3-3.1-4.1c-0.9-0.4-1.9-0.6-2.9-0.6c-2.3,0-4.4,1.4-5.2,3.5c-0.7,1.8-0.8,3.7-0.1,5.5
			C110.3,58.5,111.5,59.7,113,60.3z M112.7,53.9c0-0.6,0.2-1.1,0.4-1.6c0.5-1.2,1.9-1.8,3.1-1.2c0.4,0.2,0.8,0.5,1.1,0.9
			c0.4,0.7,0.6,1.5,0.6,2.3c0,0.7-0.1,1.4-0.4,2c-0.3,0.7-0.9,1.3-1.6,1.4c-1,0.3-2.1-0.2-2.6-1.1C112.8,55.8,112.6,54.9,112.7,53.9
			z M99.1,51c0.1,0,0.1,0,0.2,0c0.4,0,0.8,0,1.2,0c0.2,0,0.3,0.1,0.2,0.3c0,0.1,0,0.1,0,0.2c0,1.8,0,3.5,0,5.3c0,0.3,0,0.5,0,0.8
			c0.1,1.5,1.1,2.7,2.5,3c0.8,0.2,1.5,0.2,2.3,0.1c0.4,0,0.8-0.1,1.2-0.2c0.1,0,0.2-0.1,0.2-0.2c0-0.9,0-1.9,0-2.9
			c-0.5,0.3-1.1,0.5-1.7,0.4c-0.5,0-1-0.4-1.1-0.9c0-0.1,0-0.3,0-0.4c0-1.7,0-3.4,0-5.1c0-0.3,0-0.3,0.3-0.3c0.7,0,1.4,0,2.1,0
			c0.3,0,0.3,0,0.3-0.3c0-0.7,0-1.5,0-2.2c0-0.2,0-0.2-0.3-0.3c-0.7,0-1.4,0-2.1,0c-0.3,0-0.3,0-0.3-0.3c0-0.9,0-1.8,0-2.7
			c0-0.3,0-0.3-0.3-0.3c-0.6,0-1.2,0-1.8,0c-0.4,0-0.7,0-1.1,0c-0.1,0-0.2,0-0.2,0.2c0,0.1,0,0.2,0,0.3c0,0.8,0,1.7,0,2.5
			c0,0.3,0,0.3-0.3,0.3c-0.4,0-0.8,0-1.2,0s-0.4,0-0.4,0.3c0,0.6,0,1.2,0,1.8c0,0.1,0,0.2,0,0.4C98.8,50.9,98.9,51,99.1,51L99.1,51z
			 M85.3,56.2c0,0.4,0,0.9,0.1,1.3c0.2,1.3,1.1,2.4,2.3,2.9c1,0.4,2.2,0.4,3.2,0.1c0.7-0.2,1.3-0.6,1.9-1.1c0,0.3,0,0.6,0,0.8
			c0,0.3,0,0.3,0.3,0.3c0.9,0,1.9,0,2.8,0c0.3,0,0.3,0,0.3-0.3c0-3.9,0-7.7,0-11.6c0-0.3,0-0.3-0.3-0.3c-1,0-1.9,0-2.9,0
			c-0.3,0-0.3,0-0.3,0.3c0,0.1,0,0.1,0,0.2c0,2.3,0,4.6,0,6.9c0,0.5-0.2,1-0.5,1.3c-0.5,0.5-1.3,0.8-2,0.6c-0.8-0.1-1.5-0.7-1.5-1.5
			c0-0.2-0.1-0.5-0.1-0.7c0-1.7,0-3.4,0-5.1c0-0.6,0-1.1,0-1.7c0-0.3,0-0.3-0.3-0.3h-2.8c0,0-0.1,0-0.1,0c-0.1,0-0.2,0-0.2,0.2
			c0,0.1,0,0.1,0,0.2C85.3,51.2,85.3,53.7,85.3,56.2z M78.6,53.4c-0.7-0.4-1.5-0.6-2.3-0.6c-1.2-0.1-2.4,0.2-3.4,0.8
			c-1.4,0.9-2.1,2.6-1.6,4.2c0.3,1.1,1.1,2.1,2.2,2.4c1.7,0.7,3.6,0.6,5.1-0.4c0,0.1,0,0.2,0,0.3c0,0.3,0,0.3,0.3,0.3
			c0.9,0,1.8,0,2.7,0c0.3,0,0.3,0,0.3-0.3c0-0.1,0-0.1,0-0.2c0-2.3,0-4.7,0-7c0-0.4,0-0.7-0.1-1.1c-0.1-1.4-1-2.7-2.3-3.3
			c-0.6-0.3-1.3-0.5-1.9-0.5c-1-0.1-2.1,0-3,0.3c-1.4,0.5-2.5,1.7-2.9,3.2c-0.1,0.3-0.1,0.4,0.3,0.4c0.9,0,1.7,0,2.6,0
			c0.2,0,0.4-0.1,0.4-0.3c0.2-0.4,0.6-0.7,1.1-0.8c0.4-0.1,0.7-0.1,1.1,0c0.7,0.1,1.3,0.6,1.4,1.3C78.7,52.5,78.7,53,78.6,53.4
			C78.6,53.4,78.6,53.4,78.6,53.4L78.6,53.4z M77.9,57.6c-0.4,0.2-0.9,0.3-1.4,0.3c-0.5,0-1-0.1-1.5-0.4c-0.4-0.2-0.6-0.6-0.6-1
			c0-0.4,0.2-0.8,0.6-1c1-0.5,2.2-0.5,3.1,0.1c0.2,0.1,0.3,0.2,0.4,0.3c0.1,0.1,0.1,0.3,0.2,0.4C78.8,56.9,78.4,57.5,77.9,57.6
			L77.9,57.6z"/>
	</g>
</g>
</svg>
